PathFileType	4	(X/Y/Z)	D:\TRACE\spotREDO_2-26-24\spot_Both_Motion_3_5-platform.trc
DataRate	CameraRate	NumFrames	NumMarkers	Units	OrigDataRate	OrigDataStartFrame	OrigNumFrames
100.00	100.00	      24	5	mm	100.00	3501	      7000
Frame#	Time	Left_Front			Right_Front			Left_Aft			Right_Aft			Post			
		X1	Y1	Z1	X2	Y2	Z2	X3	Y3	Z3	X4	Y4	Z4	X5	Y5	Z5	

3501	35.000	-672.09882	7.74989	-572.43030	742.48792	15.04785	-487.73425	-744.00433	-7.49514	645.82867	825.67889	-0.54765	651.10645	22.36129	641.59894	-967.52161	
3502	35.010	-672.15265	7.55949	-572.54889	742.48541	14.91729	-487.74713	-744.05432	-7.55278	645.82025	825.53949	-0.51605	651.12799	22.03936	641.16547	-967.89844	
3503	35.020	-672.30566	7.43066	-572.51105	742.43817	14.85559	-487.81726	-744.04462	-7.44709	645.70117	825.50922	-0.55669	651.04462	21.98334	640.88263	-967.93323	
3504	35.030	-672.31433	7.39782	-572.55865	742.31488	14.92714	-487.90225	-743.99554	-7.24814	645.68933	825.60004	-0.32105	651.08392	21.97538	640.64526	-967.92169	
3505	35.040	-672.36499	7.39170	-572.54913	742.33289	14.83618	-487.82068	-744.00385	-7.13554	645.63232	825.55902	-0.02782	650.99756	21.97598	640.45166	-967.83252	
3506	35.050	-672.48297	7.27774	-572.58429	742.40131	14.85792	-487.81757	-743.74597	-6.86708	645.76508	825.54919	0.12377	650.95251	21.99999	640.32465	-967.72180	
3507	35.060	-672.62354	7.06647	-572.61053	742.31885	14.70066	-488.00504	-743.83795	-6.75927	645.70508	825.45911	0.25823	650.88715	21.90237	640.06360	-967.76678	
3508	35.070	-672.62396	6.88473	-572.66736	742.29260	14.53625	-487.99182	-743.92993	-6.60229	645.63129	825.30682	0.35018	650.74036	22.00175	639.81726	-967.75232	
3509	35.080	-672.67365	6.74812	-572.70770	742.29633	14.23436	-488.15753	-744.05048	-6.61847	645.51117	825.27014	0.58382	650.68134	22.08440	639.61646	-967.95398	
3510	35.090	-672.52539	6.55966	-572.79498	742.39136	14.16224	-488.04886	-743.98529	-6.19331	645.61877	825.33752	0.85421	650.67053	21.96431	639.38019	-968.43573	
3511	35.100	-672.57288	6.45070	-572.83948	742.40930	14.09360	-488.10962	-743.98590	-5.92892	645.56873	825.32373	1.27493	650.75140	21.73449	639.00055	-968.84473	
3512	35.110	-672.47992	6.16669	-572.86151	742.49792	13.63485	-488.15457	-743.98853	-5.76488	645.47375	825.25861	1.27833	650.65881	21.84938	638.55896	-969.39520	
3513	35.120	-672.42358	5.89195	-572.93262	742.51062	13.47312	-488.26932	-744.03363	-5.57892	645.41083	825.27716	1.34972	650.64355	22.13533	638.17151	-969.86682	
3514	35.130	-672.33435	5.51379	-573.08569	742.42554	13.27425	-488.35501	-744.05005	-5.33996	645.31885	825.29773	1.43158	650.63489	21.74931	637.83923	-970.39862	
3515	35.140	-672.25696	5.32554	-573.25488	742.37659	13.14500	-488.43527	-744.09308	-5.06478	645.21912	825.51782	1.63397	650.76105	21.63228	637.58142	-970.75885	
3516	35.150	-672.21106	5.22376	-573.26477	742.27295	13.25420	-488.56018	-743.98663	-4.78074	645.18854	825.49573	2.02748	650.57983	21.67575	637.29120	-970.95575	
3517	35.160	-672.22687	5.10578	-573.26172	742.50958	12.84579	-488.38867	-743.98114	-4.72398	645.16034	825.60938	2.41293	650.46405	21.70010	636.81049	-971.08118	
3518	35.170	-672.13257	4.82178	-573.38226	742.51794	12.58311	-488.47488	-744.18683	-4.14863	645.10315	825.44037	2.76419	650.25989	21.57687	636.26080	-971.33820	
3519	35.180	-672.21692	4.51543	-573.46722	742.52325	12.26250	-488.63287	-744.24347	-4.00801	645.01727	825.38452	3.11650	650.23004	21.50068	635.83740	-971.39166	
3520	35.190	-672.22461	4.28086	-573.56604	742.56714	11.91194	-488.65750	-744.21411	-3.81816	644.99677	825.45325	3.25377	650.14832	21.56262	635.55670	-971.42029	
3521	35.200	-672.31543	4.07773	-573.62781	742.54938	11.69349	-488.68539	-744.21613	-3.67830	644.94666	825.31421	3.38296	650.06006	21.57141	635.20465	-971.76642	
3522	35.210	-672.31226	3.67839	-573.68457	742.51178	11.55732	-488.73587	-743.98871	-3.50129	644.94122	825.45184	3.65357	650.02771	22.22506	634.53564	-971.88867	
3523	35.220	-672.17627	3.21029	-573.80896	742.34302	11.58041	-488.80255	-744.05225	-3.05907	644.72662	825.49951	4.07735	650.08826	22.31118	634.11127	-972.44482	
3524	35.230	-672.13385	2.88003	-573.84418	742.27368	11.19207	-489.16101	-744.04877	-2.77322	644.65381	825.43683	4.21919	649.98859	21.81211	633.55188	-973.08496	
